<svg width="1024" height="1024" viewBox="0 0 1024 1024" fill="none" xmlns="http://www.w3.org/2000/svg">
<path d="M982.954 738.992C982.973 764.685 982.991 790.378 982.574 816.552C978.573 818.977 975.204 821.732 971.39 822.665C966.462 823.872 961.177 823.952 956.046 823.953C661.089 824.006 366.133 824.002 71.176 823.992C60.8884 823.992 50.4772 824.261 43.1451 814.997C43.089 789.64 43.0328 764.282 43.4592 738.462C48.2235 737.267 51.9124 739.526 52.8842 742.872C54.7842 749.415 59.3015 749.018 64.2363 749.018C363.399 748.998 662.562 749 961.724 748.996C963.556 748.996 965.573 749.398 967.171 748.769C968.965 748.062 971.041 746.718 971.842 745.086C974.675 739.312 976.679 737.994 982.954 738.992Z" fill="#5CBFEC"/>
<path d="M983.047 738.532C976.679 737.994 974.675 739.312 971.842 745.086C971.041 746.718 968.965 748.062 967.171 748.769C965.573 749.398 963.556 748.996 961.724 748.996C662.562 749 363.399 748.998 64.2363 749.018C59.3015 749.018 54.7842 749.415 52.8842 742.872C51.9123 739.526 48.2235 737.267 43.54 738C43.0844 716.641 43.0306 695.282 43.3967 673.534C45.5772 674.064 48.2214 674.537 48.9479 675.977C52.4241 682.87 58.601 681.986 64.4963 681.987C363.679 682.002 662.862 682 962.045 681.994C964.208 681.994 966.494 682.322 968.502 681.738C970.892 681.043 973.82 680.078 975.122 678.242C977.214 675.294 979.485 673.848 982.953 673.997C983.015 695.355 983.078 716.714 983.047 738.532Z" fill="#5CBFEC"/>
<path d="M983.046 673.536C979.485 673.847 977.214 675.294 975.122 678.242C973.82 680.078 970.892 681.043 968.502 681.738C966.494 682.321 964.208 681.994 962.045 681.994C662.862 682 363.679 682.002 64.4963 681.987C58.601 681.986 52.4241 682.869 48.948 675.977C48.2215 674.537 45.5772 674.063 43.4769 673.071C43.0837 653.641 43.0301 634.283 43.4305 614.536C45.563 615.219 48.2923 615.963 48.7435 617.415C51.08 624.936 50.8771 625 58.8377 625C361.561 625 664.285 625 967.009 624.998C968.841 624.998 970.947 625.531 972.435 624.807C974.218 623.941 976.81 621.898 976.716 620.525C976.376 615.596 979.215 614.566 982.951 613.994C983.014 633.688 983.077 653.382 983.046 673.536Z" fill="#5CBFEC"/>
<path d="M982.985 333.052C982.7 333.826 982.414 334.6 981.581 335.686C974.234 335.665 967.435 335.043 960.636 335.042C663.066 334.993 365.495 334.984 67.9241 335.084C59.6616 335.086 51.3995 336.331 43.1372 336.997C43.0843 335.932 43.0314 334.866 43.2691 333.073C43.7216 330.869 43.8526 329.388 44.0502 327.917C45.4928 317.173 47.6171 306.669 55.1511 297.958C58.2762 296.913 61.4572 296.44 63.5981 294.693C78.086 282.869 94.9531 278.067 113.21 278.061C379.649 277.978 646.087 277.98 912.525 278.057C930.774 278.063 947.653 282.759 962.218 294.499C964.607 296.425 968.217 296.835 971.529 298.147C974.576 305.131 977.678 311.805 980.023 318.736C981.573 323.317 982.035 328.267 982.985 333.052Z" fill="#5CBFEC"/>
<path d="M43.0556 337.46C51.3995 336.331 59.6616 335.086 67.9242 335.084C365.495 334.984 663.066 334.993 960.636 335.042C967.435 335.043 974.234 335.665 981.486 335.995C982.335 348.02 982.732 360.048 982.694 372.665C980.014 377.742 977.965 382.346 975.414 386.654C974.54 388.13 972.542 389.261 970.819 389.825C969.158 390.369 967.191 389.997 965.358 389.997C663.712 390 362.065 390 60.4183 390C59.2517 390 58.084 389.963 56.9188 390.003C52.777 390.142 50.2624 388.511 49.8919 384.064C49.7892 382.832 48.8907 381.666 48.3977 380.56C46.3653 383.054 44.7576 385.027 43.15 386.999C43.0913 370.64 43.0327 354.281 43.0556 337.46Z" fill="#5CBFEC"/>
<path d="M43.0648 815.459C50.4772 824.261 60.8883 823.992 71.176 823.992C366.133 824.002 661.089 824.006 956.046 823.953C961.177 823.952 966.462 823.872 971.39 822.666C975.204 821.732 978.573 818.977 982.494 817.014C982.569 822.72 982.289 828.443 981.579 834.646C979.499 836.202 977.478 836.969 976.269 838.415C972.438 842.995 968.808 847.753 965.287 852.579C957.04 863.88 946.836 872.444 932.493 874.016C918.984 875.496 905.374 876.869 891.807 876.878C639.716 877.045 387.625 877.026 135.534 876.918C123.934 876.913 112.339 875.632 100.735 875.083C82.4846 874.221 69.4094 865.19 59.0109 850.543C54.9584 844.836 51.7865 837.599 44.1761 835.013C43.7789 828.649 43.3816 822.285 43.0648 815.459Z" fill="#5CBFEC"/>
<path d="M983.044 613.534C979.215 614.566 976.376 615.596 976.716 620.525C976.81 621.898 974.218 623.941 972.435 624.807C970.947 625.531 968.841 624.998 967.009 624.998C664.285 625 361.561 625 58.8377 625C50.8771 625 51.08 624.936 48.7435 617.415C48.2923 615.963 45.563 615.219 43.5118 614.074C43.0851 596.308 43.0313 578.616 43.4366 560.538C48.3314 560.56 50.4201 562.333 50.1733 567.432C49.8336 574.45 51.9498 575.998 59.2065 575.998C361.728 576 664.25 576 966.771 575.998C974.148 575.998 976.145 574.397 975.867 566.951C975.661 561.425 978.214 559.895 982.949 559.997C983.012 577.689 983.074 595.381 983.044 613.534Z" fill="#5CBFEC"/>
<path d="M43.0661 387.462C44.7576 385.027 46.3652 383.054 48.3977 380.56C48.8907 381.666 49.7891 382.832 49.8918 384.065C50.2623 388.511 52.777 390.143 56.9187 390.003C58.084 389.963 59.2517 390 60.4183 390C362.065 390 663.712 390 965.358 389.998C967.191 389.998 969.158 390.37 970.819 389.825C972.542 389.261 974.54 388.131 975.414 386.654C977.965 382.346 980.014 377.742 982.6 373.125C983.003 391.023 983.068 409.05 982.694 427.605C981.157 429.29 980.091 430.478 978.952 431.593C977.574 432.944 976.328 434.985 974.687 435.405C969.915 436.624 964.974 437.896 960.1 437.898C661.943 438.012 363.786 438.009 65.6295 437.945C58.3566 437.944 50.9758 437.495 45.9173 430.831C45.4467 430.211 44.0941 430.261 43.1511 430C43.0948 415.974 43.0386 401.949 43.0661 387.462Z" fill="#5CBFEC"/>
<path d="M43.1453 503.999C43.0917 491.308 43.0381 478.616 43.4341 465.443C45.6416 464.921 48.1085 464.115 49.0331 464.973C52.8341 468.497 57.2993 468.001 61.769 468.001C362.548 468 663.328 468 964.108 468C965.607 468 967.19 468.308 968.589 467.932C971.22 467.222 973.78 466.202 976.303 465.152C978.563 464.212 980.734 463.058 982.945 461.998C983.007 475.024 983.068 488.05 982.668 501.605C975.432 505.051 968.478 506.125 960.996 506.121C660.503 505.979 360.01 506.001 59.5165 505.977C57.0394 505.977 54.5498 505.734 52.0886 505.425C49.095 505.049 46.1253 504.483 43.1453 503.999Z" fill="#5CBFEC"/>
<path d="M980.864 251C981.577 259.356 982.29 267.713 982.523 276.534C975.131 278.055 968.187 278.957 961.332 280.308C960.052 280.56 959.126 282.611 957.712 283.746C953.578 281.357 949.932 278.708 945.929 276.813C932.639 270.52 918.161 270.171 903.985 270.161C643.986 269.969 383.987 269.995 123.987 270.077C106.538 270.083 89.0124 270.475 72.7258 278.896C62.6504 277.414 52.8949 276.205 43.1394 274.996C43.0849 260.305 43.0305 245.614 43.4612 230.461C68.2565 235.905 92.9752 232.817 117.477 232.839C390.504 233.093 663.532 233.06 936.559 232.82C950.237 232.808 961.206 236.913 970.221 246.786C973.169 250.015 976.565 251.49 980.864 251Z" fill="#40ABDE"/>
<path d="M983.042 559.537C978.214 559.895 975.661 561.425 975.867 566.951C976.145 574.397 974.148 575.998 966.771 575.998C664.25 576 361.728 576 59.2065 575.998C51.9498 575.998 49.8336 574.45 50.1733 567.432C50.42 562.333 48.3313 560.56 43.5173 560.075C43.0856 551.308 43.0325 542.617 43.4314 533.537C46.0471 533.865 49.6877 534.09 50.1193 535.385C52.0064 541.045 56.315 539.989 60.3327 539.989C362.178 540.001 664.024 540 965.869 539.999C967.535 539.999 969.238 540.196 970.854 539.909C972.042 539.699 973.87 539.07 974.114 538.244C975.455 533.702 979.224 532.957 982.944 531.996C983.008 541.023 983.072 550.05 983.042 559.537Z" fill="#5CBFEC"/>
<path d="M983.038 531.536C979.224 532.957 975.455 533.702 974.114 538.244C973.87 539.07 972.042 539.699 970.854 539.909C969.238 540.196 967.535 539.999 965.869 539.999C664.024 540 362.178 540.001 60.3327 539.989C56.315 539.989 52.0064 541.045 50.1194 535.385C49.6877 534.09 46.0471 533.865 43.5125 533.074C43.0886 523.642 43.0356 514.283 43.0639 504.462C46.1253 504.483 49.095 505.05 52.0886 505.425C54.5498 505.734 57.0394 505.977 59.5165 505.977C360.01 506.001 660.503 505.979 960.996 506.121C968.478 506.125 975.432 505.051 982.574 502.065C983.005 511.69 983.069 521.383 983.038 531.536Z" fill="#5CBFEC"/>
<path d="M983.04 461.538C980.734 463.058 978.563 464.212 976.303 465.152C973.78 466.202 971.22 467.222 968.589 467.931C967.19 468.308 965.607 468 964.108 468C663.328 468 362.548 468 61.769 468.001C57.2993 468.001 52.8341 468.497 49.0332 464.972C48.1085 464.115 45.6416 464.92 43.516 464.981C43.0943 453.641 43.0405 442.283 43.0689 430.462C44.0941 430.261 45.4467 430.211 45.9173 430.831C50.9758 437.495 58.3566 437.944 65.6294 437.945C363.786 438.009 661.943 438.012 960.1 437.898C964.974 437.896 969.915 436.624 974.687 435.404C976.328 434.985 977.574 432.943 978.952 431.593C980.091 430.478 981.157 429.29 982.598 428.065C983.005 439.023 983.07 450.05 983.04 461.538Z" fill="#5CBFEC"/>
<path d="M980.927 250.647C976.565 251.49 973.169 250.015 970.221 246.785C961.206 236.913 950.237 232.808 936.559 232.82C663.532 233.06 390.504 233.093 117.477 232.839C92.9752 232.817 68.2565 235.905 43.542 229.999C43.0835 223.64 43.0295 217.282 43.5067 210.462C53.5012 210.333 62.9642 210.951 72.4276 210.957C175.045 211.027 277.663 210.996 380.281 211.024C382.927 211.025 385.578 211.323 388.218 211.574C403.563 213.034 418.902 215.777 434.248 215.807C592.505 216.122 750.763 215.961 909.021 216.111C917.43 216.119 925.965 217.083 934.218 218.728C947.679 221.41 958.327 229.474 968.138 238.661C971.203 241.531 974.126 244.557 978.868 244C979.26 245.091 979.652 246.182 980.084 247.813C980.233 248.591 980.39 248.789 980.596 248.95C980.727 249.398 980.858 249.847 980.927 250.647Z" fill="#47B1E2"/>
<path d="M978.922 243.632C974.127 244.557 971.203 241.531 968.138 238.661C958.327 229.474 947.679 221.41 934.218 218.728C925.965 217.083 917.43 216.119 909.021 216.111C750.763 215.961 592.505 216.122 434.248 215.807C418.902 215.776 403.563 213.034 388.218 211.574C385.578 211.322 382.927 211.025 380.281 211.024C277.663 210.996 175.045 211.027 72.4277 210.957C62.9643 210.951 53.5012 210.333 43.5866 209.999C43.0829 204.973 43.0307 199.947 43.4718 194.46C50.0002 192.999 56.0337 191.141 62.0706 191.13C161.125 190.949 260.18 190.982 359.234 191.092C362.255 191.095 365.506 191.944 368.25 193.243C375.287 196.574 382.099 200.382 389.373 204.017C390.96 204.535 392.135 205.188 393.394 205.51C402.012 207.712 410.644 211.707 419.279 211.726C584.519 212.097 749.76 211.998 915.334 211.997C916.111 211.998 916.556 211.998 917.319 212.239C923.06 213.146 928.537 213.519 933.89 214.542C944.602 216.589 953.576 222.217 962.271 228.564C966.033 231.309 970.643 232.892 974.867 235.003C976.237 237.757 977.607 240.511 978.922 243.632Z" fill="#4CB4E5"/>
<path d="M972.792 860.992C962.485 877.656 947.215 886.626 928.082 888.877C918.873 889.96 909.513 890.087 900.221 890.089C642.072 890.149 383.923 890.146 125.773 890.113C111.866 890.111 97.8624 890.785 84.4159 885.948C71.8289 881.42 61.6403 873.811 54.4547 862.342C57.3239 863.006 60.0741 863.687 62.398 865.08C66.5202 867.55 70.2184 870.741 74.3854 873.121C88.5973 881.237 104.472 882.867 120.247 882.859C386.16 882.717 652.074 882.366 917.987 881.908C933.295 881.882 947.358 877.062 959.892 867.887C963.787 865.036 968.47 863.26 972.792 860.992Z" fill="#40A1CE"/>
<path d="M973.015 860.7C968.47 863.26 963.787 865.036 959.892 867.887C947.358 877.062 933.295 881.882 917.987 881.908C652.074 882.366 386.161 882.717 120.247 882.859C104.472 882.867 88.5973 881.237 74.3854 873.121C70.2184 870.741 66.5202 867.55 62.398 865.08C60.0742 863.687 57.3239 863.006 54.3653 862.013C48.1363 854.245 45.4535 845.274 44.0976 835.421C51.7866 837.599 54.9585 844.835 59.0109 850.543C69.4095 865.19 82.4847 874.221 100.735 875.083C112.339 875.632 123.934 876.913 135.534 876.918C387.625 877.026 639.716 877.044 891.807 876.878C905.374 876.869 918.984 875.496 932.493 874.016C946.836 872.444 957.04 863.88 965.287 852.579C968.808 847.753 972.438 842.995 976.269 838.415C977.478 836.969 979.499 836.202 981.486 835.057C979.998 841.089 978.256 847.216 976.306 853.275C975.517 855.728 974.274 858.035 973.015 860.7Z" fill="#5CBFEC"/>
<path d="M917 211.999C916.556 211.998 916.111 211.998 915.19 211.631C912.359 210.842 910.006 210.054 907.652 210.053C747.512 209.995 587.371 210 427.23 210.001C413.319 210.001 399.813 207.551 388.374 199.469C377.976 192.122 368.46 183.501 358.765 175.195C349.396 167.168 339.285 161.875 326.418 161.906C247.598 162.095 168.777 162.084 89.9569 161.912C78.0459 161.886 68.4243 166.418 59.61 173.814C55.5956 177.183 51.8328 181.314 45.8243 180.944C46.6099 178.069 47.3955 175.193 48.9122 172.143C51.6176 171.314 54.054 171.19 55.4965 169.929C75.2944 152.619 98.5171 147.471 124.341 147.773C185.468 148.486 246.609 147.987 307.745 148.012C323.915 148.018 338.627 152.728 351.254 162.856C359.144 169.184 366.435 176.257 374.162 183.288C376.033 185.601 377.528 187.855 379.474 189.609C394.956 203.565 413.729 207.983 433.919 207.986C594.372 208.007 754.825 207.987 915.278 208.026C926.136 208.029 936.725 209.849 947.041 213.386C950.62 214.613 954.446 215.118 958.16 215.953C961.416 218.698 964.672 221.443 967.743 224.763C965.254 224.834 962.812 224.662 960.673 223.767C952.364 220.289 944.388 215.788 935.822 213.234C929.947 211.483 923.301 212.319 917 211.999Z" fill="#5BBEEB"/>
<path d="M45.499 181.144C51.8328 181.314 55.5956 177.183 59.61 173.814C68.4243 166.418 78.0459 161.886 89.9569 161.912C168.777 162.084 247.598 162.095 326.418 161.906C339.285 161.875 349.396 167.168 358.765 175.195C368.459 183.501 377.976 192.122 388.374 199.469C399.813 207.551 413.319 210.001 427.23 210.001C587.371 210 747.512 209.995 907.652 210.053C910.006 210.054 912.359 210.842 914.857 211.63C749.76 211.998 584.519 212.097 419.279 211.726C410.644 211.707 402.012 207.713 393.394 205.51C392.135 205.188 390.96 204.535 389.286 203.689C388.402 202.846 388.052 202.253 387.545 201.866C380.294 196.327 373.082 190.736 365.739 185.321C358.295 179.832 350.591 175.823 340.656 175.852C252.658 176.108 164.658 176.052 76.6587 175.903C69.6474 175.891 63.7465 177.767 57.934 181.513C53.709 184.237 48.7849 185.876 44.1724 187.998C44.5062 185.78 44.8399 183.562 45.499 181.144Z" fill="#56BBE9"/>
<path d="M44.0845 188.378C48.7849 185.876 53.7091 184.237 57.9341 181.513C63.7465 177.767 69.6474 175.891 76.6588 175.903C164.658 176.052 252.658 176.108 340.656 175.852C350.591 175.823 358.295 179.832 365.739 185.321C373.082 190.736 380.294 196.327 387.546 201.866C388.052 202.253 388.402 202.846 388.913 203.671C382.099 200.382 375.287 196.574 368.25 193.243C365.506 191.944 362.255 191.095 359.234 191.092C260.18 190.983 161.125 190.949 62.0706 191.13C56.0337 191.141 50.0002 192.999 43.5511 193.999C43.4237 192.252 43.7101 190.505 44.0845 188.378Z" fill="#53B8E7"/>
<path d="M958.018 215.638C954.446 215.118 950.62 214.613 947.041 213.386C936.725 209.849 926.136 208.029 915.278 208.026C754.825 207.987 594.372 208.007 433.919 207.986C413.729 207.983 394.956 203.565 379.475 189.609C377.529 187.855 376.033 185.601 374.146 182.905C374.249 180.648 374.534 179.065 374.819 177.482C384.101 187.972 394.937 196.283 408.861 199.232C416.546 200.86 424.529 201.821 432.379 201.828C593.438 201.97 754.497 201.923 915.556 201.946C929.105 201.948 942.11 204.292 953.684 211.916C955.18 212.902 956.484 214.18 958.018 215.638Z" fill="#68C8F2"/>
<path d="M57.4805 157.988C65.9007 146.542 77.4892 139.644 91.1074 137.149C101.93 135.166 113.119 134.496 124.151 134.451C185.273 134.201 246.397 134.225 307.52 134.37C326.762 134.416 343.885 139.965 356.485 155.645C357.066 156.368 358.054 156.763 358.593 157.645C357.554 157.992 356.776 158.003 355.647 157.954C353.834 157.121 352.3 156.46 350.922 155.56C337.038 146.492 321.724 142.076 305.238 142.044C251.273 141.942 197.307 141.943 143.341 142.051C130.381 142.077 117.418 142.567 104.464 143.025C90.674 143.512 78.174 148.162 66.3224 155.013C63.6837 156.539 60.4437 157.024 57.4805 157.988Z" fill="#6CCBF4"/>
<path d="M57.214 158.23C60.4437 157.024 63.6838 156.539 66.3225 155.013C78.1741 148.162 90.674 143.512 104.464 143.025C117.419 142.567 130.381 142.077 143.341 142.051C197.307 141.943 251.273 141.942 305.238 142.044C321.724 142.076 337.038 146.492 350.922 155.56C352.3 156.46 353.835 157.121 355.75 158.301C357.96 159.458 359.715 160.206 361.47 160.955C365.788 166.275 370.105 171.594 374.621 177.198C374.534 179.065 374.249 180.648 373.98 182.613C366.435 176.257 359.144 169.184 351.254 162.856C338.627 152.728 323.915 148.018 307.745 148.011C246.609 147.987 185.468 148.486 124.341 147.773C98.5171 147.471 75.2944 152.619 55.4965 169.929C54.054 171.19 51.6176 171.314 49.2345 171.955C51.5329 167.453 54.2402 162.963 57.214 158.23Z" fill="#66C6F1"/>
<path d="M43.0544 275.458C52.8949 276.205 62.6504 277.414 72.5113 279.143C65.465 284.593 59.0949 290.288 54.7258 297.942C47.6171 306.669 45.4928 317.173 44.0502 327.917C43.8526 329.389 43.7216 330.869 43.336 332.677C43.0646 313.979 43.017 294.949 43.0544 275.458Z" fill="#40A1CE"/>
<path d="M958.037 283.832C959.126 282.611 960.052 280.56 961.332 280.308C968.187 278.957 975.131 278.055 982.452 276.997C982.972 295.372 983.085 313.748 983.091 332.588C982.035 328.267 981.573 323.317 980.023 318.736C977.678 311.805 974.576 305.131 971.305 297.875C966.555 292.879 962.296 288.355 958.037 283.832Z" fill="#40A1CE"/>
<path d="M917.319 212.239C923.301 212.319 929.947 211.482 935.822 213.234C944.388 215.788 952.364 220.289 960.673 223.767C962.812 224.662 965.254 224.834 967.82 225.091C970.326 227.996 972.57 231.149 974.84 234.652C970.643 232.892 966.033 231.31 962.271 228.564C953.575 222.217 944.602 216.589 933.89 214.542C928.537 213.52 923.059 213.146 917.319 212.239Z" fill="#56BBE9"/>
<path d="M361.353 160.648C359.715 160.207 357.96 159.458 356.101 158.362C356.776 158.004 357.555 157.992 358.722 157.972C359.82 158.756 360.528 159.549 361.353 160.648Z" fill="#68C8F2"/>
<path d="M980.595 248.745C980.39 248.789 980.233 248.59 980.065 248.171C980.274 248.096 980.47 248.279 980.595 248.745Z" fill="#40ABDE"/>
<path d="M957.712 283.746C962.296 288.355 966.555 292.879 971.038 297.674C968.217 296.835 964.607 296.425 962.218 294.499C947.653 282.759 930.774 278.063 912.525 278.057C646.087 277.98 379.649 277.978 113.21 278.061C94.9531 278.067 78.086 282.87 63.598 294.693C61.4572 296.44 58.2762 296.913 55.1511 297.958C59.0949 290.288 65.465 284.593 72.8312 279.416C89.0124 270.475 106.538 270.082 123.987 270.077C383.987 269.995 643.986 269.969 903.985 270.161C918.161 270.171 932.639 270.52 945.929 276.813C949.932 278.708 953.578 281.357 957.712 283.746Z" fill="#8CD9F9"/>
</svg>
